<?xml version="1.0" standalone="no"?>
<!DOCTYPE svg PUBLIC "-//W3C//DTD SVG 20010904//EN"
 "http://www.w3.org/TR/2001/REC-SVG-20010904/DTD/svg10.dtd">
<svg version="1.0" xmlns="http://www.w3.org/2000/svg"
 width="96.000000pt" height="96.000000pt" viewBox="0 0 96.000000 96.000000"
 preserveAspectRatio="xMidYMid meet">

<g transform="translate(0.000000,96.000000) scale(0.100000,-0.100000)"
fill="#000000" stroke="none">
<path d="M140 880 c-46 -46 -9 -100 70 -100 l50 0 0 60 0 60 -50 0 c-37 0 -55
-5 -70 -20z"/>
<path d="M700 840 l0 -60 50 0 c37 0 55 5 70 20 46 46 9 100 -70 100 l-50 0 0
-60z"/>
<path d="M156 124 c-9 -8 -16 -19 -16 -24 0 -5 7 -16 16 -24 13 -14 57 -16
324 -16 267 0 311 2 324 16 20 19 20 29 0 48 -13 14 -57 16 -324 16 -267 0
-311 -2 -324 -16z"/>
</g>
</svg>
